<svg enable-background="new 21.4 22.1 236.6 254.9" version="1.1" viewBox="21.4 22.1 236.6 254.9" xmlns="http://www.w3.org/2000/svg"><g transform="matrix(.99607 0 0 1.1826 1.002 -69.086)" fill="#cc9408"><path d="m161.16 241.44c-7.231 5.4197-17.926-.76531-17.919-9.5485-1.7846-8.66 8.5297-16.819 16.264-11.969 5.6648 3.4383 2.3496 6.5012-2.22 7.4483-3.1648 1.3214-6.2396 3.0086-9.7748 2.8237.5385 7.6067 9.435 13.565 16.131 8.542-.82723.90106-1.6545 1.8021-2.4817 2.7032zm-4.6532-15.354c5.2466-6.9843-11.732-7.845-9.0995 1.2975-.96862 5.1342 4.3828.12164 6.8817-.31122.73927-.32877 1.4785-.65753 2.2178-.98629z" stroke-width="1.0574"/><path d="m142.03 242.52h-8.6859c2.4444-3.1259.91747-7.4372 1.3442-11.137.077-7.8224.0992-15.65.51702-23.463-4.3264.38919-3.7008-.3776-.1034-1.8382 1.703.44375 9.3104-1.0887 5.4028 1.1894-1.6858 8.6064-.71021 17.641-.95649 26.445-.52582 3.746.1486 8.8514 4.0731 7.8411-.53045.32114-1.0609.64227-1.5914.96341z" stroke-width="1.0574"/><path d="m125.79 221c7.4907 5.2107.82732 12.652-1.8435 17.601 3.1945 3.5698 8.9724 7.0359 6.5468 12.784-3.3354 7.9799-15.784 9.3922-21.724 3.6634-6.4965-8.5075 7.8835-12.582 11.215-13.378-1.7578-2.8437.81313-5.7852-3.8152-4.8524-9.3856-1.8099-7.3418-16.031 1.3739-17.143 4.7509-.93122 9.6356-.35124 14.451-.5136-1.9989 1.3335-3.7168 2.2568-6.2042 1.8382zm-3.5157 22.923c-8.164-2.6231-15.572 9.1974-5.4432 11.972 9.6954 3.4674 15.389-7.3221 5.4432-11.972zm1.4477-9.7314c5.8242-6.3453-6.53-19.994-9.4517-8.7718-.87112 4.9673 3.879 13.602 9.4517 8.7718z" stroke-width="1.0574"/><path d="m95.287 243.28c-10.106.65392-15.732-12.894-9.2177-20.149 5.613-7.5641 19.35-5.4173 21.365 4.1498 2.324 7.6688-3.9783 16.383-12.148 15.999zm6.1008-4.2169c2.9684-6.0329 1.4-16.345-5.6241-18.824-9.5198-.87126-9.0866 11.903-5.34 17.563 1.9945 4.243 8.1401 5.3696 10.964 1.2609z" stroke-width="1.0574"/><path d="m69.022 243.28c-10.106.65392-15.732-12.894-9.2177-20.149 5.613-7.5641 19.35-5.4173 21.365 4.1498 2.324 7.6688-3.9783 16.383-12.148 15.999zm6.1008-4.2169c2.9684-6.0329 1.4-16.345-5.6241-18.824-9.5236-.89167-9.0839 11.908-5.34 17.563 1.9945 4.243 8.1401 5.3696 10.964 1.2609z" stroke-width="1.0574"/><path d="m53.719 241.44c-8.7404 2.3363-19.509 4.9083-26.786-2.1581-9.4436-8.8556-5.2255-26.866 7.4462-30.068 6.3975-1.7196 13.851-.89733 19.237 3.1404-1.2291 1.173-4.9694 5.4859-5.04 3.4634.221-6.0281-12.211-7.5236-16.513-3.4419-11.187 8.4884-4.26 29.454 9.8697 29.58 5.3584 1.1206 8.0019-1.9453 6.8234-6.8375.94911-3.7498-3.9245-1.3077-6.0977-1.7372-1.7069.0158 3.7614-2.894 5.407-1.997 1.7582.3755 7.3021-.77032 6.5751.60392-2.2025 2.1133-.67288 6.5853-1.1278 9.4518" stroke-width="1.0574"/><path d="m141.59 272.95c-3.236.62929-5.2752-.26922-5.2418-3.8132-1.7953-7.2818-3.5906-14.564-5.3859-21.845 3.6531-1.1431 4.0608 1.7711 4.4702 4.6829 1.3778 6.1207 2.7555 12.241 4.1332 18.362 1.7713-7.6817 3.5426-15.363 5.3139-23.045 3.239-.63 5.2739.26952 5.2239 3.8176 1.5482 6.4092 3.0965 12.818 4.6447 19.228 1.687-7.6817 3.3739-15.363 5.0608-23.045 4.1893-1.175 3.0154 1.8716 2.1622 4.6658-1.6907 6.9976-3.3815 13.995-5.0722 20.993-3.2408.63044-5.2731-.26971-5.213-3.8202-1.5097-6.3291-3.0194-12.658-4.5292-18.987-1.8556 7.6025-3.7113 15.205-5.5669 22.808z" stroke-width="1.2259"/><path d="m183.09 255.14c.0992-9.0744-11.854-5.6098-13.826-1.2157-5.4151-2.4414 6.1715-9.7187 10.505-6.9514 6.5154.63665 6.6419 7.6198 6.3582 12.611.14518 4.4164-.38475 8.9055.5061 13.256-4.6504 1.3574-2.5348-4.7972-6.5317-.40091-6.9389 4.0483-16.255-3.523-12.484-11.044 2.1332-7.7854 13.839-2.2226 15.473-5.3871v-.43637zm0 5.5831c-6.5329-4.9276-18.657 2.545-10.564 9.3702 4.713 2.759 11.975-1.4115 10.564-7.0405z" stroke-width="1.2259"/><path d="m192.32 272.95c3.899 1.2446 3.273-2.0358 3.163-4.8001v-31.787c-3.899-1.2446-3.273 2.0358-3.163 4.8001z" stroke-width="1.2259"/><path d="m202.06 272.95c3.899 1.2446 3.273-2.0358 3.163-4.8001v-31.787c-3.899-1.2446-3.273 2.0358-3.163 4.8001z" stroke-width="1.2259"/><path d="m220.54 270.82c5.4229 1.6531 6.4158-10.738 9.3116-5.0577-.72464 8.5039-13.45 10.813-17.551 3.6028-3.2568-6.6278-3.6679-17.371 3.4689-21.633 7.2247-3.7342 15.066 3.0397 14.226 10.662 1.2733 4.1635-4.2497 1.6488-6.5126 2.329h-10.155c-.11771 4.4039 1.7645 10.373 7.2117 10.097zm6.1996-12.71c1.9962-11.561-16.044-9.9093-12.975 0z" stroke-width="1.2259"/><path d="m244.58 272.84c-6.2963 2.8485-9.8359-3.1319-8.6034-8.5989v-14.327c-3.0825 1.702-5.5161-2.7979-1.7971-2.6134 3.4215.78607 1.1427-4.1282 1.7971-6.1092-1.4886-2.6969 4.5948-4.882 3.163-1.2121.52413 2.2072-1.0861 6.5488.87275 7.3213 2.5356-.86796 6.7322.72892 3.6949 2.6134-3.0475-.36125-5.6866-.3142-4.5677 3.491.24944 5.4298-.55668 11.044.5219 16.332 3.2375 2.1377 5.689-2.3992 4.9185 3.1034z" stroke-width="1.2259"/></g><path d="m111.1 105.6c-13.128-16.927-29.575-33.045-50.883-38.609-14.599-.80217-23.228 21.568-11.009 30.201 18.459 11.768 36.277 27.403 42.718 49.067 2.9944 5.55 3.6433 20.45 5.3639 21.149 3.2351-15.669 15.639-28.953 14.158-45.639.40706-5.3838.29655-10.808-.34849-16.169z" fill="#1476c6"/><path d="m212.9 72.6c-4.7949-16.882-8.2233-35.672-21.617-48.202-13.327-8.9291-34.223 6.9122-27.672 22.124 8.1098 21.583 16.648 43.918 15.268 67.4.10965 24.395-5.5041 48.753-15.984 70.765-4.9214 16.073 18.394 31.001 30.699 19.261 14.826-16.333 17.12-39.243 22.025-59.804 3.5378-23.74 2.6731-48.149-2.7192-71.546z" fill="#47ae33"/><path d="m131 52.3c-7.2434-14.952-34.27-8.8198-34.041 7.9059.88129 15.785 14.388 27.967 13.906 44.028 2.8305 20.951-2.8724 42.508-13.934 60.343-4.8218 14.728 15.46 29.766 27.853 19.943 16.556-15.795 20.61-39.675 23.444-61.354 1.5566-24.621-4.1941-49.832-17.228-70.865z" fill="#ed114c"/><path d="m164.3 180.4c12.198-25.421 16.772-54.313 13.7-82.3-13.224-21.028-31.541-38.738-52.7-51.7 17.131 18.511 22.608 44.639 22.723 69.166 3.9309 22.006 16.588 42.516 14.303 65.493.087 6.238.97852 2.1398 1.9737-.65881z" fill="#fbbf16"/></svg>
