<svg width="128" height="128" enable-background="new 0 0 128 128" overflow="visible" version="1.1" viewBox="0 0 128 128" xmlns="http://www.w3.org/2000/svg"><path d="m123.32 79.561c-14.076 14.076-28.151 28.152-42.227 42.228-3.5213-.54548-5.3015-4.4919-8.0312-6.6175-11.87-11.87-23.739-23.74-35.609-35.61.90699-3.4619 6.3706-1.0633 9.3964-1.707h15.646c-.31946-10.115.71449-20.338-.67138-30.378-2.661-12.883-13.101-25.762-27.177-25.741-9.5421-.36747-20.556 2.5058-25.599 11.346-4.1381-2.072 3.3508-8.9753 5.277-11.894 12.788-13.713 33.413-17.495 51.236-13.81 14.916 3.5323 26.571 16.036 30.748 30.56 3.1564 10.141 1.6162 20.831 1.9668 31.265v8.6508h24.336c.85237-.05717 1.3484 1.1453.708 1.708z" fill="#c00" opacity=".2"/><path d="m124.03 80.266c-14.336 14.178-28.369 28.661-42.878 42.664-5.3132-1.4931-8.2842-7.5398-12.633-10.906-10.728-10.724-21.519-21.387-32.126-32.232-.32098-4.8101 6.2453-2.4286 9.4536-2.9371h15.649c-.30799-9.7415.691-19.587-.65308-29.256-2.5934-12.724-13.153-25.363-27.07-24.9-9.1418-.15724-19.644 2.814-24.247 11.418-7.394-.86036 1.3583-10.284 3.852-13.357 13.231-14.463 34.919-18.313 53.449-14.091 19.271 5.0459 32.324 24.612 32.47 44.087-.01632 8.6982-.02921 17.399-.02102 26.099 7.9745.05795 15.951-.11608 23.924.08734 1.398.35265 1.8994 2.357.82902 3.3247z" fill="#c00" opacity=".2"/><path d="m124.32 79.561c-14.076 14.076-28.151 28.152-42.227 42.228-3.5213-.54548-5.3015-4.4919-8.0312-6.6175-11.87-11.87-23.739-23.74-35.609-35.61.90699-3.4619 6.3706-1.0633 9.3964-1.707h15.646c-.31946-10.115.71449-20.338-.67138-30.378-2.661-12.883-13.101-25.762-27.177-25.741-9.5421-.36747-20.556 2.5058-25.599 11.346-4.1381-2.072 3.3508-8.9753 5.277-11.894 12.788-13.713 33.413-17.495 51.236-13.81 14.916 3.5323 26.571 16.036 30.748 30.56 3.1564 10.141 1.6162 20.831 1.9668 31.265v8.6508h24.336c.85151-.05675 1.3485 1.1456.708 1.708z" fill="#c00"/><path d="m98.28 48.825v30.028h25.336c-14.076 14.076-28.151 28.152-42.227 42.228-14.075-14.076-28.151-28.151-42.226-42.227h25.335c-.33465-10.551.75018-21.217-.70846-31.688-2.7879-13.308-13.693-26.453-28.19-26.438-9.9116-.36433-21.269 2.7942-26.466 11.956 6.3364-15.908 23.665-24.663 40.095-25.46 15.001-1.5672 31.537 3.7947 40.097 16.814 5.1545 7.2458 8.3333 15.91 8.9553 24.788z" fill="#c00"/><path d="m81.889 120.58c-13.909-13.909-27.817-27.818-41.726-41.727-.54655 1.8492 3.8877 4.2722 5.3808 6.3809 11.949 11.949 23.897 23.898 35.846 35.847.16633-.167.33267-.334.499-.501zm-27.339-113.51c-16.75-.38364-35.068 6.4364-43.569 21.68-1.7413 2.9828-1.6617 4.0519.40159.49781 5.8796-9.4713 15.076-16.782 25.89-19.705 5.3386-1.7085 13.099-2.4799 17.277-2.4729zm9.948 45.696v26.092c2.3547-3.3114.26177-9.2232.99776-13.554.068939-9.4068.73822-19.349-4.2419-27.805-4.697-9.4329-14.338-17.13-25.247-16.769 13.59.22816 24.082 12.074 27.272 24.538.6605 2.4489 1.0815 4.9648 1.2191 7.4983z" fill="#c00"/><path d="m72.055 45.892c6.4611 24.368 7.937 49.76 9.4096 74.745 4.083-3.2395 7.6348-7.5095 11.517-11.149 10.211-10.211 20.423-20.423 30.634-30.634h-25.336c-.29331-11.642.63672-23.362-.56514-34.952-2.8968-16.611-15.157-32.57-32.364-35.687-3.3088-.76893-13.724-3.1005-8.1583 2.6873 6.8662 10.738 11.301 22.814 14.862 34.99z" fill="#c00"/></svg>
