<svg overflow="scroll" version="1.2" viewBox="0 0 64 64" xmlns="http://www.w3.org/2000/svg"><path d="m53 49h-42c-1.657 0-3-1.343-3-3v-30c0-1.657 1.343-3 3-3h42c1.657 0 3 1.343 3 3v30c0 1.657-1.343 3-3 3z" fill="#eaeaea"/><path d="m14 49h-3c-1.657 0-3-1.343-3-3v-30c0-1.657 1.343-3 3-3s3 1.343 3 3z" fill="#d54c3f"/><path d="m50 49h3c1.657 0 3-1.343 3-3v-30c0-1.657-1.343-3-3-3s-3 1.343-3 3z" fill="#b63524"/><path d="m54.718 18.46c.775-.543 1.282-1.442 1.282-2.46 0-1.657-1.343-3-3-3-.639 0-1.232.2-1.718.54l-19.28 14.037-.002.001-.002-.001-19.28-14.037c-.486-.34-1.079-.54-1.718-.54-1.657 0-3 1.343-3 3 0 1.018.507 1.917 1.282 2.46l-.08-.059 22.798 16.599" fill="#de5145"/><line x1="54.799" x2="32" y1="18.401" y2="35" fill="#de5145"/><path d="m53 13c-.639 0-1.232.2-1.718.54l-19.28 14.037-.002.001-.002-.001-19.28-14.037c-.486-.34-1.079-.54-1.718-.54z" fill="#efefef"/><path d="m14.001 23.188-5.056-5.008-.002.004c.106.1.219.192.339.276l-.08-.059 4.8 3.495-.001 1.328" fill="#c64132"/><polyline transform="translate(0,-1)" points="28.668 38.591 14 50 14.001 24.063 28.665 38.587" fill="#e3e3e3"/><linearGradient id="SVGID_1_" x1="14" x2="32" y1="30.744" y2="30.744" gradientUnits="userSpaceOnUse"><stop stop-color="#C8C8C8" offset="0"/><stop stop-color="#CDCDCD" offset="1"/></linearGradient><polygon transform="translate(0,-1)" points="32 36 14.001 22.896 14.001 24.063 28.665 38.587 28.668 38.591" fill="url(#SVGID_1_)"/><linearGradient id="SVGID_2_" x1="28.664" x2="50" y1="36.447" y2="36.447" gradientUnits="userSpaceOnUse"><stop stop-color="#D9D9D9" offset="0"/><stop stop-color="#E2E2E2" offset="1"/></linearGradient><polygon transform="translate(0,-1)" points="50 50 50 22.895 32 36 28.665 38.587 40.061 50" fill="url(#SVGID_2_)"/></svg>
