<?xml version="1.0" encoding="UTF-8" standalone="no"?>
<svg
   xmlns:dc="http://purl.org/dc/elements/1.1/"
   xmlns:cc="http://creativecommons.org/ns#"
   xmlns:rdf="http://www.w3.org/1999/02/22-rdf-syntax-ns#"
   xmlns:svg="http://www.w3.org/2000/svg"
   xmlns="http://www.w3.org/2000/svg"
   xmlns:sodipodi="http://sodipodi.sourceforge.net/DTD/sodipodi-0.dtd"
   xmlns:inkscape="http://www.inkscape.org/namespaces/inkscape"
   version="1.1"
   id="whatsapp-logo-notext"
   x="0px"
   y="0px"
   viewBox="0 0 39 39"
   style="enable-background:new 0 0 39 39;"
   xml:space="preserve"
   sodipodi:docname="whatsapp2.svg"
   inkscape:version="0.92.3 (2405546, 2018-03-11)"><metadata
     id="metadata13"><rdf:RDF><cc:Work
         rdf:about=""><dc:format>image/svg+xml</dc:format><dc:type
           rdf:resource="http://purl.org/dc/dcmitype/StillImage" /><dc:title></dc:title></cc:Work></rdf:RDF></metadata><defs
     id="defs11" /><sodipodi:namedview
     pagecolor="#ffffff"
     bordercolor="#666666"
     borderopacity="1"
     objecttolerance="10"
     gridtolerance="10"
     guidetolerance="10"
     inkscape:pageopacity="0"
     inkscape:pageshadow="2"
     inkscape:window-width="1366"
     inkscape:window-height="715"
     id="namedview9"
     showgrid="false"
     inkscape:zoom="6.0512821"
     inkscape:cx="19.5"
     inkscape:cy="19.5"
     inkscape:window-x="-8"
     inkscape:window-y="-8"
     inkscape:window-maximized="1"
     inkscape:current-layer="whatsapp-logo-notext" /><style
     type="text/css"
     id="style2">
                            .logo_white{fill:#FFFFFF;}
                            .logo_green{fill:#00E676;}
                        </style><path
     class="logo_green"
     d="m 13.43,30.14 0.48,0.24 c 2,1.2 4.24,1.76 6.48,1.76 v 0 c 7.04,0 12.8,-5.76 12.8,-12.8 0,-3.36 -1.36,-6.64 -3.76,-9.04 -2.4,-2.4 -5.6,-3.76 -9.04,-3.76 -7.04,0 -12.8,5.76 -12.72,12.88 0,2.4 0.72,4.72 1.92,6.72 l 0.32,0.48 -1.28,4.72 z"
     id="path4"
     inkscape:connector-curvature="0"
     style="fill:#00e676;stroke-width:0.80000001" /><path
     class="logo_white"
     d="M 30.79,9.02 C 28.07,6.22 24.31,4.7 20.47,4.7 12.31,4.7 5.75,11.34 5.83,19.42 c 0,2.56 0.72,5.04 1.92,7.28 l -2.08,7.6 7.76,-2 c 2.16,1.2 4.56,1.76 6.96,1.76 v 0 c 8.08,0 14.64,-6.64 14.64,-14.72 0,-3.92 -1.52,-7.6 -4.24,-10.32 z M 20.47,31.58 v 0 c -2.16,0 -4.32,-0.56 -6.16,-1.68 l -0.48,-0.24 -4.64,1.2 1.2,-4.56 -0.32,-0.48 C 6.55,20.14 8.23,12.62 13.99,9.1 c 5.76,-3.52 13.2,-1.84 16.72,3.92 3.52,5.76 1.84,13.2 -3.92,16.72 -1.84,1.2 -4.08,1.84 -6.32,1.84 z m 7.04,-8.88 -0.88,-0.4 c 0,0 -1.28,-0.56 -2.08,-0.96 -0.08,0 -0.16,-0.08 -0.24,-0.08 -0.24,0 -0.4,0.08 -0.56,0.16 v 0 c 0,0 -0.08,0.08 -1.2,1.36 -0.08,0.16 -0.24,0.24 -0.4,0.24 h -0.08 c -0.08,0 -0.24,-0.08 -0.32,-0.16 l -0.4,-0.16 v 0 c -0.88,-0.4 -1.68,-0.88 -2.32,-1.52 -0.16,-0.16 -0.4,-0.32 -0.56,-0.48 -0.56,-0.56 -1.12,-1.2 -1.52,-1.92 l -0.08,-0.16 c -0.08,-0.08 -0.08,-0.16 -0.16,-0.32 0,-0.16 0,-0.32 0.08,-0.4 0,0 0.32,-0.4 0.56,-0.64 0.16,-0.16 0.24,-0.4 0.4,-0.56 0.16,-0.24 0.24,-0.56 0.16,-0.8 -0.08,-0.4 -1.04,-2.56 -1.28,-3.04 -0.16,-0.24 -0.32,-0.32 -0.56,-0.4 h -0.24 c -0.16,0 -0.4,0 -0.64,0 -0.16,0 -0.32,0.08 -0.48,0.08 l -0.08,0.08 c -0.16,0.08 -0.32,0.24 -0.48,0.32 -0.16,0.16 -0.24,0.32 -0.4,0.48 -0.56,0.72 -0.88,1.6 -0.88,2.48 v 0 c 0,0.64 0.16,1.28 0.4,1.84 l 0.08,0.24 c 0.72,1.52 1.68,2.88 2.96,4.08 l 0.32,0.32 c 0.24,0.24 0.48,0.4 0.64,0.64 1.68,1.44 3.6,2.48 5.76,3.04 0.24,0.08 0.56,0.08 0.8,0.16 v 0 c 0.24,0 0.56,0 0.8,0 0.4,0 0.88,-0.16 1.2,-0.32 0.24,-0.16 0.4,-0.16 0.56,-0.32 l 0.16,-0.16 c 0.16,-0.16 0.32,-0.24 0.48,-0.4 0.16,-0.16 0.32,-0.32 0.4,-0.48 0.16,-0.32 0.24,-0.72 0.32,-1.12 0,-0.16 0,-0.4 0,-0.56 0,0 -0.08,-0.08 -0.24,-0.16 z"
     id="path6"
     inkscape:connector-curvature="0"
     style="fill:#ffffff;stroke-width:0.80000001" /></svg>